#this shitty object is shittomatically generated
o Le_NodePaint
v -0.50393700787402 -0.50393700787402 0.49609375
v -0.50393700787402 0.50393700787402 0.49609375
v 0.50393700787402 0.50393700787402 0.49609375
v 0.50393700787402 -0.50393700787402 0.49609375
vt 1 0
vt 1 1
vt 0 1
vt 0 0
vn 0 0 -1
vn 0 0 -1
vn 0 0 -1
vn 0 0 -1
v -0.49609375 -0.50393700787402 -0.50393700787402
v -0.49609375 0.50393700787402 -0.50393700787402
v -0.49609375 0.50393700787402 0.50393700787402
v -0.49609375 -0.50393700787402 0.50393700787402
vt 1 0
vt 1 1
vt 0 1
vt 0 0
vn 1 0 0
vn 1 0 0
vn 1 0 0
vn 1 0 0
v 0.50393700787402 -0.50393700787402 -0.49609375
v 0.50393700787402 0.50393700787402 -0.49609375
v -0.50393700787402 0.50393700787402 -0.49609375
v -0.50393700787402 -0.50393700787402 -0.49609375
vt 1 0
vt 1 1
vt 0 1
vt 0 0
vn 0 0 1
vn 0 0 1
vn 0 0 1
vn 0 0 1
v 0.49609375 -0.50393700787402 0.50393700787402
v 0.49609375 0.50393700787402 0.50393700787402
v 0.49609375 0.50393700787402 -0.50393700787402
v 0.49609375 -0.50393700787402 -0.50393700787402
vt 1 0
vt 1 1
vt 0 1
vt 0 0
vn -1 0 0
vn -1 0 0
vn -1 0 0
vn -1 0 0
v -0.50393700787402 0.49609375 0.50393700787402
v -0.50393700787402 0.49609375 -0.50393700787402
v 0.50393700787402 0.49609375 -0.50393700787402
v 0.50393700787402 0.49609375 0.50393700787402
vt 1 0
vt 1 1
vt 0 1
vt 0 0
vn 0 -1 0
vn 0 -1 0
vn 0 -1 0
vn 0 -1 0
v -0.50393700787402 -0.49609375 -0.50393700787402
v -0.50393700787402 -0.49609375 0.50393700787402
v 0.50393700787402 -0.49609375 0.50393700787402
v 0.50393700787402 -0.49609375 -0.50393700787402
vt 1 0
vt 1 -1
vt 0 -1
vt 0 0
vn 0 1 0
vn 0 1 0
vn 0 1 0
vn 0 1 0
g Le_NodePaint_Face_PZ
s off
f 1/1/1 2/2/2 3/3/3 4/4/4
g Le_NodePaint_Face_PX
s off
f 5/5/5 6/6/6 7/7/7 8/8/8
g Le_NodePaint_Face_MZ
s off
f 9/9/9 10/10/10 11/11/11 12/12/12
g Le_NodePaint_Face_MX
s off
f 13/13/13 14/14/14 15/15/15 16/16/16
g Le_NodePaint_Face_PY
s off
f 17/17/17 18/18/18 19/19/19 20/20/20
g Le_NodePaint_Face_MY
s off
f 21/21/21 22/22/22 23/23/23 24/24/24